<?xml version="1.0" encoding="UTF-8"?>
<svg version="1.1" xmlns="http://www.w3.org/2000/svg" width="2000" height="1003">
<path d="M0 0 C1.0126914 0.00040031 1.0126914 0.00040031 2.04584122 0.00080872 C85.57333969 0.04208523 168.24341539 10.48963417 428 97.1875 C428.98386688 97.66476532 428.98386688 97.66476532 429.98760986 98.15167236 C447.05417298 106.44427359 463.8340496 115.08122614 480.25244141 124.60644531 C483.1069821 126.24906176 485.97797564 127.85889689 488.85546875 129.4609375 C500.39896418 135.89328108 511.70153282 142.58647747 522.79736328 149.76416016 C524.9208489 151.1363527 527.05109984 152.49733009 529.18359375 153.85546875 C551.41133675 168.05893608 573.00672946 183.21875363 594 199.1875 C595.51400391 200.33412109 595.51400391 200.33412109 597.05859375 201.50390625 C605.24234636 207.73037277 613.22819262 214.1895679 621.18408203 220.70361328 C622.76299721 221.99383195 624.34778627 223.27685588 625.93359375 224.55859375 C636.75557107 233.32230495 647.27036124 242.44993394 657.43701172 251.96606445 C660.21785806 254.56575269 663.03782953 257.1068713 665.91015625 259.60546875 C677.61033974 269.80171916 688.6425642 280.73050597 699.625 291.6875 C700.13973877 292.19965057 700.65447754 292.71180115 701.18481445 293.23947144 C706.47543725 298.50906783 711.6983816 303.79739262 716.52685547 309.5 C718.11035177 311.31390893 719.78113559 313.0020189 721.5 314.6875 C724.53594925 317.67622337 727.34508659 320.80456479 730.125 324.03125 C732.17359094 326.38712958 734.27203002 328.6925746 736.375 331 C740.25033743 335.29358632 743.9222131 339.71838002 747.55859375 344.21484375 C750.27720323 347.52502266 753.0710689 350.76224976 755.875 354 C761.28612046 360.27297058 766.43990698 366.71374714 771.5078125 373.265625 C773.11074785 375.33013859 774.72632058 377.38432476 776.34375 379.4375 C784.51023524 389.82675487 792.37434919 400.39548163 800 411.1875 C800.63196289 412.08130371 801.26392578 412.97510742 801.91503906 413.89599609 C811.24991676 427.13218687 820.32631256 440.50841149 829 454.1875 C829.52126465 455.00863281 830.0425293 455.82976562 830.57958984 456.67578125 C878.15537529 531.90782562 914.53290471 612.82788196 946 716.1875 C946.32919434 717.3312207 946.65838867 718.47494141 946.99755859 719.65332031 C971.36977356 805.15584494 980.07378574 892.58164411 982 981.1875 C853.63 981.1875 725.26 981.1875 593 981.1875 C592.01 974.2575 591.02 967.3275 590 960.1875 C585.93544157 945.73573669 579.99689414 933.44613806 570 922.1875 C569.40832031 921.50171875 568.81664062 920.8159375 568.20703125 920.109375 C555.00206542 905.80634165 533.44028673 896.02065515 514 895.1875 C512.9275 895.1359375 511.855 895.084375 510.75 895.03125 C486.4188107 894.42297027 464.9317336 902.87202923 446.84375 919.125 C429.30980757 935.84968355 422.67489072 957.78220618 420 981.1875 C412.41 981.1875 404.82 981.1875 397 981.1875 C397 968.25567813 397 968.25567813 398.1875 961.9375 C398.3213208 961.21570557 398.4551416 960.49391113 398.59301758 959.75024414 C402.36476086 940.55112527 410.55997921 924.11974906 423 909.1875 C423.52207031 908.51332031 424.04414062 907.83914063 424.58203125 907.14453125 C428.9476468 901.64662348 434.46853967 897.45593087 440 893.1875 C441.17369141 892.27291016 441.17369141 892.27291016 442.37109375 891.33984375 C454.62591331 882.26755743 468.27556213 876.76715403 483 873.1875 C484.45019531 872.81818359 484.45019531 872.81818359 485.9296875 872.44140625 C512.91960709 866.76961155 541.68052486 873.13289263 564.9921875 887.22265625 C569.21886272 889.98371812 573.16495773 892.90633038 577 896.1875 C577.79792969 896.85265625 578.59585937 897.5178125 579.41796875 898.203125 C587.33116107 905.02441947 593.76235266 912.83090191 600 921.1875 C591.03526175 903.05100383 581.03170586 887.73650377 567 873.1875 C566.33613281 872.47207031 565.67226562 871.75664063 564.98828125 871.01953125 C539.20420697 843.93814505 500.41690962 829.41380861 463.59375 828.0625 C421.8506073 827.36093458 382.89683077 843.35994072 353 872.1875 C352.23300781 872.89132812 351.46601562 873.59515625 350.67578125 874.3203125 C321.43015907 901.93826091 308.78125657 941.99985547 307 981.1875 C297.76 981.1875 288.52 981.1875 279 981.1875 C277.68991744 938.39146957 293.47319256 893.94013886 322.3125 862.125 C323.87430334 860.47850557 325.4367373 858.83260891 327 857.1875 C328.21527255 855.77678156 329.42420605 854.36056281 330.625 852.9375 C355.82780343 824.11762756 395.92595749 806.94311931 433 801.1875 C433.65218506 801.0851001 434.30437012 800.9827002 434.97631836 800.87719727 C480.92725521 794.74268932 529.43361145 806.16116376 566.484375 834.2265625 C567.31453125 834.87367188 568.1446875 835.52078125 569 836.1875 C569.83015625 836.81398438 570.6603125 837.44046875 571.515625 838.0859375 C591.19995748 853.4680057 606.78505268 872.50360126 619 894.1875 C594.29422424 839.92824308 552.00015102 797.05225234 495.79443359 775.44970703 C440.00523279 755.02961452 378.78563229 757.04524364 324.54663086 781.39868164 C276.96022052 803.61355249 240.26981707 841.9584508 218 889.1875 C217.47664063 890.29222656 216.95328125 891.39695312 216.4140625 892.53515625 C205.26255403 917.28678484 199.58691815 944.19892729 198.4375 971.25 C198.293125 974.529375 198.14875 977.80875 198 981.1875 C186.45 981.1875 174.9 981.1875 163 981.1875 C163 916.71263699 186.13896239 855.03982653 230.4921875 807.90625 C232.26502533 805.98429497 233.93943409 804.07072761 235.58984375 802.05078125 C237.53869926 799.73552827 239.38310972 797.80948815 241.6875 795.875 C244.69681256 793.31792179 247.60991862 790.69093292 250.5 788 C299.575222 743.9294049 365.71707874 723.41517505 431 726.1875 C489.52671246 729.89676767 543.4134107 753.73335997 586.64453125 793.046875 C588.87197672 795.07115381 591.1153172 797.07431328 593.375 799.0625 C593.98085937 799.59617187 594.58671875 800.12984375 595.2109375 800.6796875 C597.08755271 802.26128896 599.0234765 803.73340562 601 805.1875 C579.60839253 780.06728647 579.60839253 780.06728647 555 758.1875 C553.73528809 757.18278113 552.4709947 756.17753529 551.20703125 755.171875 C513.55637109 725.48449212 469.13913517 706.42563242 422 698.1875 C421.08250977 698.02233887 420.16501953 697.85717773 419.21972656 697.68701172 C390.26341764 692.70289803 357.85647271 692.82376486 329 698.1875 C328.04963867 698.35378906 327.09927734 698.52007813 326.12011719 698.69140625 C296.35664069 703.97312735 267.64114872 713.90888075 241 728.1875 C240.34338379 728.53780273 239.68676758 728.88810547 239.01025391 729.24902344 C203.35253162 748.41687898 171.19659322 775.71086689 147 808.1875 C146.53271484 808.80898926 146.06542969 809.43047852 145.58398438 810.07080078 C107.48457183 861.09772035 92.776494 918.75189982 88 981.1875 C74.47 981.1875 60.94 981.1875 47 981.1875 C47 932.50795545 57.46923891 885.29296514 78 841.1875 C78.39413086 840.33736328 78.78826172 839.48722656 79.19433594 838.61132812 C91.55484458 812.24361526 107.66280162 787.94811834 127 766.1875 C127.96196289 765.09634888 127.96196289 765.09634888 128.94335938 763.9831543 C134.71814099 757.489087 140.73298644 751.2712967 146.875 745.125 C147.79152344 744.19623047 148.70804688 743.26746094 149.65234375 742.31054688 C155.7870846 736.16286354 162.18415623 730.56578786 169 725.1875 C170.06006087 724.32963098 171.11999229 723.47160192 172.1796875 722.61328125 C240.41117227 669.11584174 327.53886657 644.81668357 413.6875 654.3125 C417.81155978 654.83775693 421.90390778 655.47760423 426 656.1875 C427.15338867 656.38617676 428.30677734 656.58485352 429.49511719 656.78955078 C476.2471139 665.1314267 521.54195766 683.10587285 560 711.1875 C556.02112361 706.99961649 551.72339708 703.48815158 547.125 700 C546.37686035 699.43120117 545.6287207 698.86240234 544.85791016 698.27636719 C537.76804093 692.93462334 530.49689851 687.93837086 523 683.1875 C522.42668945 682.82237305 521.85337891 682.45724609 521.26269531 682.08105469 C440.7667549 631.22951159 343.41801743 616.34428756 251 637.1875 C195.32670741 650.03518291 142.58275987 677.06464662 100 715.1875 C99.04480469 716.03183594 98.08960938 716.87617187 97.10546875 717.74609375 C84.20932109 729.33674903 71.61820943 741.4543546 61 755.1875 C60.08917974 756.30083746 59.17487779 757.41133222 58.2578125 758.51953125 C5.31014273 822.81686615 -15.42439293 899.50485638 -21 981.1875 C-35.85 981.1875 -50.7 981.1875 -66 981.1875 C-67.63733147 884.03916621 -31.39800895 788.76938194 33 716.1875 C33.96220459 715.09393188 33.96220459 715.09393188 34.94384766 713.97827148 C40.54304888 707.67398101 46.36804979 701.63320464 52.32861328 695.67358398 C53.8717353 694.12826934 55.40664306 692.57509554 56.94140625 691.02148438 C63.30266758 684.62472429 69.92670855 678.8025087 77 673.1875 C78.02766839 672.32425263 79.05108652 671.45586312 80.06640625 670.578125 C146.00630778 614.02872588 233.80546488 583.82347119 320 581.1875 C320.75587402 581.16413574 321.51174805 581.14077148 322.29052734 581.11669922 C386.34785097 579.46423412 449.3899459 594.55940142 507 622.1875 C500.0302971 617.25483587 492.71989445 613.25841094 485.125 609.375 C484.52985596 609.0696936 483.93471191 608.76438721 483.3215332 608.4498291 C479.22187604 606.34741975 475.1125691 604.26456128 471 602.1875 C470.11924805 601.73906738 469.23849609 601.29063477 468.33105469 600.82861328 C414.3063327 573.48235413 351.87948273 560.98186725 291.625 560.9375 C290.36709152 560.93648788 290.36709152 560.93648788 289.08377075 560.93545532 C208.04788812 561.03756972 127.53111117 585.35032018 60 630.1875 C59.21044922 630.70666992 58.42089844 631.22583984 57.60742188 631.76074219 C46.82193134 638.87466838 36.61711378 646.45448169 26.71923828 654.75634766 C24.32278784 656.7512344 21.87610689 658.68201572 19.4375 660.625 C8.88330732 669.29451542 -0.8291011 678.93338464 -10.5 688.5625 C-11.61193726 689.66742798 -11.61193726 689.66742798 -12.74633789 690.79467773 C-17.36826177 695.43018475 -21.74593601 700.21369935 -26 705.1875 C-26.88911132 706.20851763 -27.77841826 707.22936497 -28.66796875 708.25 C-47.48064783 730.18354212 -63.88103507 754.4106128 -77.69140625 779.78466797 C-78.95579192 782.10632538 -80.24242009 784.41450642 -81.53125 786.72265625 C-105.27690945 829.85109602 -119.15159707 878.62881314 -126 927.1875 C-126.12068848 928.03924805 -126.24137695 928.89099609 -126.36572266 929.76855469 C-128.6702177 946.7601229 -129.083186 964.09546763 -130 981.1875 C-146.5 981.1875 -163 981.1875 -180 981.1875 C-180 875.98440464 -145.82638187 772.87111362 -70 677.1875 C-69.57460938 676.67719238 -69.14921875 676.16688477 -68.7109375 675.64111328 C-55.90906664 660.31087293 -42.32861435 645.05624457 -27.140625 632.05078125 C-24.66813514 629.89863223 -22.27728643 627.66769281 -19.875 625.4375 C-14.1434577 620.21700057 -8.1231851 615.45327447 -1.98339844 610.72509766 C0.1453175 609.07484495 2.25706085 607.40441622 4.3671875 605.73046875 C13.00620856 598.89844758 21.73311272 592.39190633 31.01464844 586.45898438 C33.14552068 585.09430377 35.2638523 583.71121972 37.3828125 582.328125 C54.22973726 571.42068427 71.88539782 561.82152432 90 553.1875 C90.80308594 552.80384277 91.60617187 552.42018555 92.43359375 552.02490234 C114.62029527 541.50290085 137.51395093 533.29977367 161 526.1875 C161.8770459 525.9184082 162.7540918 525.64931641 163.65771484 525.37207031 C188.09821309 517.96244375 213.96617449 513.10214055 239.35839844 510.46386719 C241.09998095 510.28166096 242.84033788 510.08727038 244.57910156 509.87988281 C278.76010981 505.83532155 314.92686963 506.43876545 349 511.1875 C349.69919556 511.28460266 350.39839111 511.38170532 351.11877441 511.48175049 C381.45270704 515.73599217 410.83162978 522.80814587 440 532.1875 C390.85471424 511.34703253 339.14067117 499.49922085 286 495.1875 C285.15904785 495.11692383 284.3180957 495.04634766 283.45166016 494.97363281 C203.25807706 488.55814616 119.27198226 504.3648199 -44 593.1875 C-44.53898926 593.60177246 -45.07797852 594.01604492 -45.63330078 594.44287109 C-52.25918497 599.54014059 -58.76885931 604.75677783 -65.125 610.1875 C-65.89432861 610.84359253 -65.89432861 610.84359253 -66.67919922 611.51293945 C-76.81792315 620.26084245 -86.4817889 629.48265329 -95.9465332 638.94873047 C-97.69138808 640.69138317 -99.44413743 642.42583163 -101.19726562 644.16015625 C-107.20051758 650.13417716 -112.86286492 656.17370248 -118.11474609 662.82861328 C-119.97578862 665.15720599 -121.92457216 667.36476571 -123.9375 669.5625 C-138.31486926 685.60968184 -150.61065178 703.94307883 -162 722.1875 C-162.38075684 722.7959375 -162.76151367 723.404375 -163.15380859 724.03125 C-212.64442668 803.60012386 -231.76708983 888.8266355 -237 981.1875 C-255.81 981.1875 -274.62 981.1875 -294 981.1875 C-292.09175046 893.40802113 -273.41943934 811.24901547 -200 675.1875 C-199.32686768 674.20789307 -199.32686768 674.20789307 -198.64013672 673.20849609 C-187.61964199 657.18932545 -175.73328216 641.87974865 -163 627.1875 C-162.36707031 626.45402344 -161.73414063 625.72054687 -161.08203125 624.96484375 C-159.39965783 623.02838189 -157.70374977 621.10517351 -156 619.1875 C-155.28070312 618.37539063 -154.56140625 617.56328125 -153.8203125 616.7265625 C-149.88174671 612.31059479 -145.88283077 608.01903423 -141.65625 603.87890625 C-139.96597869 602.15275654 -138.42619496 600.35154888 -136.875 598.5 C-132.28092277 593.18107948 -127.01916981 588.57555811 -121.82519531 583.85986328 C-119.93751288 582.13024521 -118.07174232 580.3795781 -116.2109375 578.62109375 C-109.02780712 571.83336504 -101.74916086 565.33155347 -94 559.1875 C-92.87260041 558.26957549 -91.74636466 557.3502203 -90.62109375 556.4296875 C-17.97348137 497.24258812 71.38186537 457.63214618 175.5 441.375 C176.19239777 441.27563141 176.88479553 441.17626282 177.59817505 441.07388306 C201.43263344 437.69965601 225.30832332 436.8072769 249.35124969 436.86964417 C251.53440015 436.87508574 253.71753977 436.87745195 255.9006958 436.8795166 C277.06333921 436.91070242 297.99567075 437.36393919 319 440.1875 C320.35610254 440.3658539 321.71222293 440.54407207 323.06835938 440.72216797 C331.06021109 441.78173762 339.03606644 442.93421928 347 444.1875 C298.3612583 432.54870972 248.13346523 425.47248836 198 427.1875 C197.35796631 427.20941406 196.71593262 427.23132813 196.05444336 427.25390625 C120.0707436 429.92524252 45.29513704 445.64175169 -23.73339844 478.12402344 C-26.03684125 479.2047857 -28.34940494 480.26380978 -30.6640625 481.3203125 C-55.52287678 492.75867056 -79.53431193 506.56049935 -102 522.1875 C-102.61439941 522.6117627 -103.22879883 523.03602539 -103.86181641 523.47314453 C-118.43473072 533.55131419 -132.61048616 544.09292513 -146.0390625 555.66015625 C-148.73326751 557.95982728 -151.47667481 560.17216362 -154.25 562.375 C-166.42646846 572.32641595 -177.49775631 583.5962343 -188.625 594.6875 C-190.01102417 596.06651489 -190.01102417 596.06651489 -191.42504883 597.47338867 C-196.49187597 602.55223236 -201.34000105 607.7351711 -206 613.1875 C-207.02134769 614.34429639 -208.04474908 615.49928318 -209.0703125 616.65234375 C-216.63898834 625.23042167 -223.67266906 634.11702092 -230.5390625 643.26367188 C-231.80369364 644.92899497 -233.1020327 646.56861891 -234.40625 648.203125 C-253.75118123 672.4505388 -269.55309417 699.82800234 -284 727.1875 C-284.68594238 728.48131592 -284.68594238 728.48131592 -285.38574219 729.80126953 C-316.38682667 788.71225765 -333.75683157 853.40701596 -342 919.1875 C-342.12213867 920.14736816 -342.24427734 921.10723633 -342.37011719 922.09619141 C-343.53352319 931.5557465 -344.08537001 941.05864472 -344.55859375 950.57421875 C-344.60125366 951.40473755 -344.64391357 952.23525635 -344.68786621 953.09094238 C-345.16260601 962.45485023 -345.57286768 971.82109835 -346 981.1875 C-366.79 981.1875 -387.58 981.1875 -409 981.1875 C-410.11274475 896.98981386 -393.12053424 812.66281407 -352 719.1875 C-351.56977539 718.24874023 -351.13955078 717.30998047 -350.69628906 716.34277344 C-327.38136306 665.54499164 -295.68282851 618.28891028 -259 576.1875 C-258.34128906 575.42695312 -257.68257812 574.66640625 -257.00390625 573.8828125 C-255.34560015 571.975569 -253.67621929 570.07901351 -252 568.1875 C-251.29359375 567.38828125 -250.5871875 566.5890625 -249.859375 565.765625 C-245.74615637 561.14874695 -241.56853756 556.66026734 -237.1171875 552.3671875 C-235.23470769 550.42913633 -233.48499392 548.44015144 -231.7265625 546.390625 C-228.21009045 542.34579533 -224.4432444 538.68660665 -220.5 535.0625 C-219.08976559 533.75529265 -217.67961128 532.44799887 -216.26953125 531.140625 C-215.20532959 530.15739258 -215.20532959 530.15739258 -214.11962891 529.15429688 C-212.07259837 527.25486379 -210.03971569 525.34159795 -208.01171875 523.421875 C-200.89750052 516.69693382 -193.66054766 510.29135883 -186 504.1875 C-184.7745452 503.18411656 -183.55069515 502.17877123 -182.328125 501.171875 C-160.99539069 483.62852529 -138.58095441 467.57651324 -115 453.1875 C-114.16839355 452.67896484 -113.33678711 452.17042969 -112.47998047 451.64648438 C-46.80909259 411.68912657 26.07659758 383.11009183 166 362.1875 C167.21155762 362.10137451 168.42311523 362.01524902 169.67138672 361.92651367 C183.15359599 361.02367567 196.61826942 361.07366939 210.125 361.125 C212.45182194 361.13002939 214.77864495 361.13458973 217.10546875 361.13867188 C222.73700285 361.14955345 228.36849625 361.16617551 234 361.1875 C148.01444082 353.75417608 62.43401886 360.98960379 -20 387.1875 C-21.07121094 387.52185059 -22.14242187 387.85620117 -23.24609375 388.20068359 C-51.3739953 397.01782753 -78.44459804 408.43323007 -105 421.1875 C-106.41732422 421.86329102 -106.41732422 421.86329102 -107.86328125 422.55273438 C-122.70642612 429.66291216 -136.8874401 437.73146207 -151 446.1875 C-152.58063458 447.1238576 -154.16135706 448.06006685 -155.7421875 448.99609375 C-178.17780096 462.38632391 -199.83071007 477.57335542 -220 494.1875 C-220.85207031 494.8784375 -221.70414063 495.569375 -222.58203125 496.28125 C-233.78810208 505.38718452 -244.72759371 514.69735267 -255.26708984 524.56787109 C-257.10625939 526.28681316 -258.95290538 527.99745406 -260.80078125 529.70703125 C-274.39554048 542.28500243 -274.39554048 542.28500243 -286.96484375 555.87109375 C-289.14790293 558.3558425 -291.39858444 560.76572682 -293.6628418 563.17626953 C-299.73031402 569.63912672 -305.46138464 576.26193453 -311 583.1875 C-311.98128222 584.37908109 -312.96448045 585.56908596 -313.94921875 586.7578125 C-377.57718193 663.78216265 -421.22042908 757.11852296 -448.8125 896.5 C-448.96141693 897.59729935 -448.96141693 897.59729935 -449.11334229 898.71676636 C-451.84613715 919.10671179 -453.30069856 939.51351257 -454.125 960.0625 C-454.41375 967.03375 -454.7025 974.005 -455 981.1875 C-477.44 981.1875 -499.88 981.1875 -523 981.1875 C-523 952.94126506 -523 952.94126506 -522.25 941 C-522.20709839 940.30259705 -522.16419678 939.60519409 -522.11999512 938.88665771 C-516.85301474 854.52318781 -496.74759011 770.64165727 -447 665.1875 C-446.52997559 664.24487305 -446.05995117 663.30224609 -445.57568359 662.33105469 C-419.68847007 610.71823334 -385.14818054 562.30898106 -346.27514648 519.69824219 C-344.91732821 518.19981927 -343.56852151 516.69303151 -342.23901367 515.16943359 C-334.9850613 506.90472312 -327.16223588 499.19897712 -319.37963867 491.43676758 C-316.93618078 488.99868368 -314.49813193 486.55528211 -312.06054688 484.11132812 C-310.48729979 482.53874167 -308.91374263 480.96646536 -307.33984375 479.39453125 C-306.62191147 478.67457474 -305.90397919 477.95461823 -305.16429138 477.21284485 C-300.6018909 472.67125402 -295.87815549 468.38596821 -291 464.1875 C-289.39231627 462.73304483 -287.78760285 461.27529105 -286.1875 459.8125 C-281.92389983 455.96943702 -277.55447727 452.29427266 -273.08984375 448.6875 C-270.84039335 446.86746428 -268.60526208 445.03531118 -266.37890625 443.1875 C-257.2583844 435.64736325 -247.87255987 428.58996148 -238.21289062 421.75634766 C-236.09842191 420.25727705 -233.99342806 418.74584295 -231.890625 417.23046875 C-207.21621269 399.52204262 -181.33123668 383.89405288 -154.56835938 369.56787109 C-152.19923213 368.2945778 -149.84077448 367.00367711 -147.484375 365.70703125 C-100.50487307 340.09890341 -48.76992031 322.14551549 3 309.1875 C3.99525696 308.93643494 3.99525696 308.93643494 5.01062012 308.68029785 C37.09451994 300.60121087 70.07565726 295.36155567 103 292.1875 C93.30275592 291.98802583 83.71762054 292.57998511 74.0625 293.375 C73.26376465 293.44029907 72.4650293 293.50559814 71.64208984 293.57287598 C1.56387418 299.39198181 -66.85496385 315.73157284 -132 342.1875 C-132.62442993 342.44019653 -133.24885986 342.69289307 -133.89221191 342.95324707 C-165.67138856 355.84474054 -196.81020086 371.17480749 -226 389.1875 C-227.00933594 389.80463867 -228.01867187 390.42177734 -229.05859375 391.05761719 C-241.62061119 398.74777681 -254.00229459 406.64139205 -266 415.1875 C-266.72912598 415.70554199 -267.45825195 416.22358398 -268.20947266 416.75732422 C-292.3893844 433.97611997 -315.57203795 452.45424934 -337.32885742 472.65991211 C-338.57618358 473.80009031 -339.83629561 474.92631033 -341.1027832 476.04516602 C-347.95192191 482.11154602 -354.4501707 488.48415897 -360.90551758 494.96264648 C-362.6917467 496.7542595 -364.48329347 498.54043055 -366.27539062 500.32617188 C-371.54013883 505.58786268 -376.74440394 510.84703637 -381.57446289 516.5168457 C-383.76486928 519.08388645 -386.07499512 521.53077554 -388.375 524 C-393.4905942 529.54407987 -398.27340744 535.3077099 -403 541.1875 C-404.00785316 542.41640019 -405.01705155 543.64419793 -406.02734375 544.87109375 C-467.2063906 619.31189394 -511.82434199 706.96321947 -547.59759521 843.21911621 C-547.97447114 845.06262427 -548.35737864 846.90489638 -548.74072266 848.74707031 C-557.75574724 892.47925658 -560.18886535 936.68533435 -562 981.1875 C-586.75 981.1875 -611.5 981.1875 -637 981.1875 C-635.48769369 896.19588559 -623.54346541 813.12086412 -532.55859375 594.75341797 C-531.00417721 592.19437695 -529.48231498 589.61853647 -527.96875 587.03515625 C-517.25049031 568.80322795 -505.37020097 551.33366072 -493 534.1875 C-492.44844238 533.42195801 -491.89688477 532.65641602 -491.32861328 531.86767578 C-481.07541007 517.68094467 -470.23242823 504.07456875 -458.87329102 490.76147461 C-456.10317742 487.51262572 -453.4120973 484.21255482 -450.75 480.875 C-445.15455345 474.00287402 -439.0170672 467.64415751 -432.91992188 461.22070312 C-431.09546674 459.28859957 -429.2865566 457.34349749 -427.484375 455.390625 C-421.31320264 448.70570057 -415.04616413 442.13339839 -408.625 435.6875 C-407.98312744 435.04103516 -407.34125488 434.39457031 -406.67993164 433.72851562 C-402.9021457 429.96292396 -399.00523471 426.39700965 -394.96875 422.91113281 C-391.7935849 420.13128837 -388.75008026 417.21500657 -385.6875 414.3125 C-380.54285081 409.47445176 -375.3073618 404.85331752 -369.78515625 400.4453125 C-367.17880569 398.33245047 -364.64495685 396.15910621 -362.11694336 393.9543457 C-354.41432656 387.24707756 -346.41202349 381.01340539 -338.24511719 374.88378906 C-336.02714495 373.20800925 -333.82856013 371.50944836 -331.6328125 369.8046875 C-260.90116988 315.2888642 -178.259806 274.72941027 -65.9375 241.75 C-64.77775162 241.44432602 -64.77775162 241.44432602 -63.59457397 241.13247681 C-52.45392345 238.21195874 -41.25673394 235.62001829 -30 233.1875 C-122.00997053 249.02319498 -210.92437565 276.86955628 -344.11816406 356.85449219 C-346.11972866 358.27231039 -348.13300493 359.67228686 -350.1484375 361.0703125 C-359.63333527 367.67203538 -368.87868838 374.54699371 -378.00390625 381.63671875 C-379.89507027 383.10597925 -381.79097612 384.56891949 -383.6875 386.03125 C-391.41528335 392.01742569 -398.87444808 398.27187081 -406.25439453 404.68017578 C-407.98187975 406.17185322 -409.72090215 407.64870526 -411.46484375 409.12109375 C-423.38595717 419.20212536 -434.74203738 429.81892562 -445.70703125 440.9296875 C-447.50200863 442.69714393 -449.28035505 444.31375912 -451.25 445.875 C-454.15072397 448.31424516 -456.43420386 450.93793076 -458.8828125 453.81640625 C-461.47912042 456.72407952 -464.22571685 459.45085164 -467 462.1875 C-470.92754417 466.07161257 -474.7170868 469.9985765 -478.30078125 474.20703125 C-480.28030432 476.51419952 -482.3264212 478.75396782 -484.375 481 C-488.27241447 485.31875657 -491.97300355 489.76512051 -495.62890625 494.2890625 C-497.69654685 496.81655727 -499.80578066 499.30100379 -501.93725586 501.7746582 C-508.10614886 508.95326527 -513.80640097 516.42437179 -519.41552734 524.04541016 C-521.00980067 526.20074979 -522.62195757 528.34162872 -524.23828125 530.48046875 C-544.17497224 556.99684901 -561.900906 585.19911581 -578 614.1875 C-578.54769043 615.17314941 -579.09538086 616.15879883 -579.65966797 617.17431641 C-621.32442273 692.52749198 -649.75366612 775.18592076 -673 981.1875 C-699.07 981.1875 -725.14 981.1875 -752 981.1875 C-752 936.77823795 -752 936.77823795 -750.8125 921.875 C-750.74720093 921.00425842 -750.68190186 920.13351685 -750.61462402 919.23638916 C-744.56105692 838.73617613 -727.18260172 759.11314097 -668 614.1875 C-667.51289551 613.17333008 -667.02579102 612.15916016 -666.52392578 611.11425781 C-660.07531567 597.76561231 -653.00272668 584.83245119 -645.60546875 571.98828125 C-644.05425079 569.28214189 -642.52368123 566.56547082 -641 563.84375 C-615.71918225 518.81281832 -584.88978544 477.00291582 -551.36816406 437.79394531 C-549.97483444 436.15795158 -548.59220031 434.51337632 -547.2109375 432.8671875 C-535.20418057 418.61963228 -522.25284161 405.2721109 -509 392.1875 C-505.79449456 388.99312478 -502.60562963 385.78247182 -499.41796875 382.5703125 C-497.67454827 380.8176396 -495.93105665 379.06503744 -494.1875 377.3125 C-493.32318359 376.43980469 -492.45886719 375.56710937 -491.56835938 374.66796875 C-487.09291891 370.17563983 -482.56707345 365.82274143 -477.75366211 361.69384766 C-475.34456848 359.6245023 -473.02009827 357.46734195 -470.6875 355.3125 C-466.19851943 351.21869791 -461.58756524 347.33280333 -456.859375 343.51953125 C-454.36180224 341.48257642 -451.90746921 339.40392373 -449.46435547 337.30224609 C-441.87669344 330.78688039 -433.97323442 324.73030077 -425.99560547 318.70263672 C-424.20805895 317.34546597 -422.43098692 315.9765244 -420.66015625 314.59765625 C-397.55984022 296.62427038 -373.14936689 280.34268436 -347.99902344 265.37744141 C-345.98693003 264.17971995 -343.98166825 262.97109367 -341.9765625 261.76171875 C-330.84818364 255.09135513 -319.46239614 248.90720315 -308.01708984 242.80029297 C-305.2000826 241.29445466 -302.39083228 239.77497528 -299.58203125 238.25390625 C-272.33786722 223.63096753 -243.9129574 211.61713211 -215.11157227 200.44580078 C-212.66483776 199.45635632 -210.33079918 198.41887924 -208 197.1875 C-258.66049816 214.58537046 -308.31791107 234.73620373 -355 261.1875 C-356.52439697 262.04746582 -356.52439697 262.04746582 -358.07958984 262.92480469 C-379.90437648 275.26819564 -401.26086369 288.27644179 -421.80908203 302.65527344 C-423.93917506 304.14496185 -426.07635933 305.62395518 -428.21484375 307.1015625 C-444.79091775 318.61348072 -460.74515251 330.96365646 -476.31298828 343.80029297 C-477.83643159 345.0529999 -479.36886635 346.2947526 -480.90234375 347.53515625 C-492.84300343 357.19639485 -504.30265735 367.34866249 -515.4765625 377.8828125 C-518.46456118 380.69777962 -521.50631074 383.44656235 -524.5625 386.1875 C-530.64561509 391.7470683 -536.47904307 397.55607836 -542.3125 403.375 C-543.02709885 404.08571655 -543.02709885 404.08571655 -543.75613403 404.81079102 C-548.81021935 409.84319994 -553.74544952 414.91571996 -558.38842773 420.33081055 C-561.12003813 423.47789388 -564.00893291 426.47589105 -566.875 429.5 C-571.69258232 434.6225247 -576.28767105 439.83660531 -580.67578125 445.3359375 C-582.92223744 448.09209384 -585.24083438 450.76251069 -587.59155273 453.42919922 C-594.57454672 461.35895273 -601.03630711 469.59680443 -607.37939453 478.04345703 C-608.97541029 480.15496809 -610.59087945 482.24977355 -612.21484375 484.33984375 C-668.36871066 556.71045002 -710.91879014 639.86484459 -780 981.1875 C-808.38 981.1875 -836.76 981.1875 -866 981.1875 C-866 946.88097561 -866 946.88097561 -865.25 933.4375 C-865.20709839 932.63865387 -865.16419678 931.83980774 -865.11999512 931.01675415 C-861.14584766 858.11387811 -848.31527858 786.00856326 -827 716.1875 C-826.77632751 715.45331848 -826.55265503 714.71913696 -826.32220459 713.96270752 C-799.43682057 625.97873186 -758.18066046 544.06721272 -690 444.1875 C-689.06945801 442.94468262 -689.06945801 442.94468262 -688.12011719 441.67675781 C-679.77305892 430.55412971 -671.23816911 419.60833854 -662.39160156 408.87890625 C-660.39381881 406.45072399 -658.41818576 404.00463585 -656.4375 401.5625 C-648.80668275 392.25764606 -640.97340215 383.14203732 -632.79785156 374.31152344 C-630.27139555 371.58265653 -627.7964758 368.8222718 -625.375 366 C-622.22933516 362.36517676 -618.85540298 359.00244319 -615.40625 355.65625 C-613.46354057 353.66308059 -611.65140763 351.64392362 -609.83984375 349.53515625 C-605.47342353 344.5052746 -600.7810971 339.8223581 -596.0625 335.125 C-595.20720703 334.26583984 -594.35191406 333.40667969 -593.47070312 332.52148438 C-589.02519737 328.08276047 -584.52549999 323.7803673 -579.73803711 319.71118164 C-577.90959913 318.10824845 -576.20204461 316.4233668 -574.5 314.6875 C-571.53264677 311.67336418 -568.42654708 308.88832667 -565.22265625 306.12890625 C-562.67023117 303.89945939 -560.18112486 301.60748618 -557.6875 299.3125 C-553.20202448 295.2218944 -548.59419456 291.33932157 -543.87109375 287.52734375 C-541.32246973 285.45030186 -538.81294436 283.3380153 -536.31396484 281.20214844 C-529.03614927 274.9839968 -521.57971698 269.03252888 -514 263.1875 C-513.21028809 262.57712891 -512.42057617 261.96675781 -511.60693359 261.33789062 C-474.95849514 233.0576635 -436.18785663 208.11839554 -396 185.1875 C-394.0461793 184.0712005 -392.09253532 182.95459214 -390.13890076 181.83796692 C-387.42611804 180.28748881 -384.71305905 178.73749452 -382 177.1875 C-399.72342061 185.88521358 -417.27062094 194.7271852 -434.34716797 204.65380859 C-437.02421609 206.20150014 -439.71443957 207.7233692 -442.41015625 209.23828125 C-483.64003505 232.44650722 -522.86246565 259.94500445 -559.37109375 290.0234375 C-561.10728158 291.45263224 -562.8493864 292.87467276 -564.59765625 294.2890625 C-575.98390763 303.51209381 -586.99879165 313.14048761 -597.70703125 323.140625 C-600.30695871 325.56601934 -602.95685335 327.93039762 -605.61328125 330.29370117 C-610.72506984 334.89194031 -615.6256496 339.66807414 -620.48046875 344.53515625 C-621.33755936 345.39129013 -622.19464996 346.24742401 -623.07771301 347.12950134 C-624.87294209 348.92405535 -626.66693085 350.71985096 -628.4597168 352.5168457 C-631.18751402 355.25001405 -633.92062895 357.97778295 -636.65429688 360.70507812 C-638.40917498 362.46061687 -640.16374294 364.21646571 -641.91796875 365.97265625 C-643.12914619 367.18079735 -643.12914619 367.18079735 -644.36479187 368.41334534 C-648.57391646 372.63974521 -652.63308538 376.93875373 -656.51719666 381.46658325 C-658.73613994 384.0418517 -661.05803527 386.51256789 -663.375 389 C-667.64839971 393.62530953 -671.68883729 398.38831901 -675.63671875 403.296875 C-677.79314579 405.93448824 -680.00188904 408.50993304 -682.23999023 411.07763672 C-688.34586207 418.09272568 -694.04757431 425.35104729 -699.6484375 432.7734375 C-701.89141967 435.74344619 -704.16685234 438.6831515 -706.4765625 441.6015625 C-713.70596645 450.74315684 -720.48162224 460.07698592 -726.98828125 469.74609375 C-729.18116213 473.0018964 -731.43189802 476.20227923 -733.74780273 479.37133789 C-758.69986236 513.53000602 -778.98856108 551.478553 -798 589.1875 C-798.51771973 590.21214355 -799.03543945 591.23678711 -799.56884766 592.29248047 C-838.45797023 669.80164108 -863.90787763 754.71583651 -886.23828125 912.0625 C-886.30153595 912.82050903 -886.36479065 913.57851807 -886.42996216 914.35949707 C-888.20119488 936.62893336 -888.45480417 958.83447107 -889 981.1875 C-919.03 981.1875 -949.06 981.1875 -980 981.1875 C-978.84355291 906.24972879 -971.92973614 832.32625181 -955 759.1875 C-954.72636627 758.0033551 -954.72636627 758.0033551 -954.44720459 756.79528809 C-935.73774136 676.19225088 -906.46387812 598.08557918 -844.69873047 483.03613281 C-843.58945169 481.17596254 -842.48412593 479.31342766 -841.38330078 477.44824219 C-827.13307077 453.31907179 -811.49182098 429.84538564 -795 407.1875 C-794.46536133 406.44999512 -793.93072266 405.71249023 -793.37988281 404.95263672 C-776.88329167 382.23578853 -759.38145538 360.40322171 -741 339.1875 C-740.34515625 338.43082031 -739.6903125 337.67414063 -739.015625 336.89453125 C-735.15788068 332.4616645 -731.2316887 328.09143003 -727.29296875 323.73046875 C-725.85298213 322.13348189 -724.41740084 320.53250017 -722.98828125 318.92578125 C-711.54988385 306.09298874 -699.63916199 293.72981306 -687.5 281.5625 C-686.98766815 281.04757996 -686.4753363 280.53265991 -685.94747925 280.00213623 C-680.73406861 274.76792254 -675.49250381 269.62271672 -669.87695312 264.81494141 C-666.48844113 261.87687936 -663.2554471 258.77127314 -660 255.6875 C-654.76739635 250.73083443 -649.45608338 245.89736949 -644 241.1875 C-643.41782715 240.6831543 -642.8356543 240.17880859 -642.23583984 239.65917969 C-634.58804797 233.04594633 -626.85264521 226.55675252 -619 220.1875 C-617.77424947 219.18028366 -616.54902308 218.17242924 -615.32421875 217.1640625 C-600.34911273 204.86546073 -584.76079825 193.45352672 -569 182.1875 C-568.27103516 181.66623535 -567.54207031 181.1449707 -566.79101562 180.60791016 C-497.44512455 131.11282362 -421.52674344 90.95639393 -54 1.1875 C-53.20009644 1.14619965 -52.40019287 1.10489929 -51.5760498 1.06234741 C-34.38306229 0.18920165 -17.21324455 -0.01425407 0 0 Z M245 362.1875 C245 362.5175 245 362.8475 245 363.1875 C246.65 363.1875 248.3 363.1875 250 363.1875 C250 362.8575 250 362.5275 250 362.1875 C248.35 362.1875 246.7 362.1875 245 362.1875 Z M562 712.1875 C562.33 712.8475 562.66 713.5075 563 714.1875 C563.66 713.8575 564.32 713.5275 565 713.1875 C564.01 712.8575 563.02 712.5275 562 712.1875 Z M604 809.1875 C605 811.1875 605 811.1875 605 811.1875 Z M620 896.1875 C621 898.1875 621 898.1875 621 898.1875 Z M621 898.1875 C622 900.1875 622 900.1875 622 900.1875 Z M601 923.1875 C602 925.1875 602 925.1875 602 925.1875 Z " fill="#754AA2" transform="translate(999,10.8125)"/>
</svg>
